<?xml version="1.0" encoding="utf-8"?>
<!-- Generator: Adobe Illustrator 18.1.1, SVG Export Plug-In . SVG Version: 6.00 Build 0)  -->
<svg version="1.1" id="图层_1" xmlns="http://www.w3.org/2000/svg" xmlns:xlink="http://www.w3.org/1999/xlink" x="0px" y="0px"
	 viewBox="0 0 442.8 419.3" enable-background="new 0 0 442.8 419.3" xml:space="preserve">
<g>
	<g>
		<g>
			<defs>
				<path id="SVGID_1_" d="M166.4,247.4l6.7-10.3c2.3,4.8,5.1,6.4,6.5,9.6C176.6,245.7,170.8,248.7,166.4,247.4z"/>
			</defs>
			<clipPath id="SVGID_2_">
				<use xlink:href="#SVGID_1_"  overflow="visible"/>
			</clipPath>
			<g clip-path="url(#SVGID_2_)">
				<g>
					<defs>
						<polygon id="SVGID_3_" points="179.3,236.8 179.8,236.8 179.8,247.9 179.3,247.9 179.3,236.8 						"/>
					</defs>
					<clipPath id="SVGID_4_">
						<use xlink:href="#SVGID_3_"  overflow="visible"/>
					</clipPath>
					<g clip-path="url(#SVGID_4_)">
						<polygon fill="#F58220" points="179.3,236.8 179.6,236.8 179.6,247.9 179.3,247.9 179.3,236.8 						"/>
						<polygon fill="#F58220" points="179.6,236.8 179.8,236.8 179.8,247.9 179.6,247.9 179.6,236.8 						"/>
					</g>
				</g>
				<g>
					<defs>
						<polygon id="SVGID_5_" points="166.1,236.8 179.8,236.8 179.8,247.9 166.1,247.9 166.1,236.8 						"/>
					</defs>
					<clipPath id="SVGID_6_">
						<use xlink:href="#SVGID_5_"  overflow="visible"/>
					</clipPath>
					<g clip-path="url(#SVGID_6_)">
						<polygon fill="#FFCC4E" points="166.1,236.8 167,236.8 167,247.9 166.1,247.9 166.1,236.8 						"/>
						<polygon fill="#FFC74A" points="167,236.8 168,236.8 168,247.9 167,247.9 167,236.8 						"/>
						<polygon fill="#FEC146" points="168,236.8 168.9,236.8 168.9,247.9 168,247.9 168,236.8 						"/>
						<polygon fill="#FDBC42" points="168.9,236.8 169.8,236.8 169.8,247.9 168.9,247.9 168.9,236.8 						"/>
						<polygon fill="#FDB73E" points="169.8,236.8 170.7,236.8 170.7,247.9 169.8,247.9 169.8,236.8 						"/>
						<polygon fill="#FCB13B" points="170.7,236.8 171.6,236.8 171.6,247.9 170.7,247.9 170.7,236.8 						"/>
						<polygon fill="#FBAC37" points="171.6,236.8 172.5,236.8 172.5,247.9 171.6,247.9 171.6,236.8 						"/>
						<polygon fill="#FAA634" points="172.5,236.8 173.4,236.8 173.4,247.9 172.5,247.9 172.5,236.8 						"/>
						<polygon fill="#F9A130" points="173.4,236.8 174.4,236.8 174.4,247.9 173.4,247.9 173.4,236.8 						"/>
						<polygon fill="#F99C2D" points="174.4,236.8 175.3,236.8 175.3,247.9 174.4,247.9 174.4,236.8 						"/>
						<polygon fill="#F8962A" points="175.3,236.8 176.2,236.8 176.2,247.9 175.3,247.9 175.3,236.8 						"/>
						<polygon fill="#F79126" points="176.2,236.8 177.1,236.8 177.1,247.9 176.2,247.9 176.2,236.8 						"/>
						<polygon fill="#F78C24" points="177.1,236.8 178,236.8 178,247.9 177.1,247.9 177.1,236.8 						"/>
						<polygon fill="#F68721" points="178,236.8 178.9,236.8 178.9,247.9 178,247.9 178,236.8 						"/>
						<polygon fill="#F58220" points="178.9,236.8 179.8,236.8 179.8,247.9 178.9,247.9 178.9,236.8 						"/>
					</g>
				</g>
			</g>
		</g>
	</g>
	<g>
		<g>
			<defs>
				<path id="SVGID_7_" d="M192.1,267.6l-2.8-11.1c4.6,1.7,9.2,3.6,13.8,5.5C199.3,263.8,195.6,265.7,192.1,267.6z"/>
			</defs>
			<clipPath id="SVGID_8_">
				<use xlink:href="#SVGID_7_"  overflow="visible"/>
			</clipPath>
			<g clip-path="url(#SVGID_8_)">
				<g>
					<defs>
						<polygon id="SVGID_9_" points="202.8,256.2 203.3,256.2 203.3,267.8 202.8,267.8 202.8,256.2 						"/>
					</defs>
					<clipPath id="SVGID_10_">
						<use xlink:href="#SVGID_9_"  overflow="visible"/>
					</clipPath>
					<g clip-path="url(#SVGID_10_)">
						<polygon fill="#F58220" points="202.8,256.2 203.1,256.2 203.1,267.8 202.8,267.8 202.8,256.2 						"/>
						<polygon fill="#F58220" points="203.1,256.2 203.3,256.2 203.3,267.8 203.1,267.8 203.1,256.2 						"/>
					</g>
				</g>
				<g>
					<defs>
						<polygon id="SVGID_11_" points="189.1,256.2 203.3,256.2 203.3,267.8 189.1,267.8 189.1,256.2 						"/>
					</defs>
					<clipPath id="SVGID_12_">
						<use xlink:href="#SVGID_11_"  overflow="visible"/>
					</clipPath>
					<g clip-path="url(#SVGID_12_)">
						<polygon fill="#FFCC4E" points="189.1,256.2 190,256.2 190,267.8 189.1,267.8 189.1,256.2 						"/>
						<polygon fill="#FFC74A" points="190,256.2 191,256.2 191,267.8 190,267.8 190,256.2 						"/>
						<polygon fill="#FEC146" points="191,256.2 191.9,256.2 191.9,267.8 191,267.8 191,256.2 						"/>
						<polygon fill="#FDBC42" points="191.9,256.2 192.9,256.2 192.9,267.8 191.9,267.8 191.9,256.2 						"/>
						<polygon fill="#FDB73E" points="192.9,256.2 193.8,256.2 193.8,267.8 192.9,267.8 192.9,256.2 						"/>
						<polygon fill="#FCB13B" points="193.8,256.2 194.8,256.2 194.8,267.8 193.8,267.8 193.8,256.2 						"/>
						<polygon fill="#FBAC37" points="194.8,256.2 195.7,256.2 195.7,267.8 194.8,267.8 194.8,256.2 						"/>
						<polygon fill="#FAA634" points="195.7,256.2 196.7,256.2 196.7,267.8 195.7,267.8 195.7,256.2 						"/>
						<polygon fill="#F9A130" points="196.7,256.2 197.6,256.2 197.6,267.8 196.7,267.8 196.7,256.2 						"/>
						<polygon fill="#F99C2D" points="197.6,256.2 198.6,256.2 198.6,267.8 197.6,267.8 197.6,256.2 						"/>
						<polygon fill="#F8962A" points="198.6,256.2 199.5,256.2 199.5,267.8 198.6,267.8 198.6,256.2 						"/>
						<polygon fill="#F79126" points="199.5,256.2 200.5,256.2 200.5,267.8 199.5,267.8 199.5,256.2 						"/>
						<polygon fill="#F78C24" points="200.5,256.2 201.4,256.2 201.4,267.8 200.5,267.8 200.5,256.2 						"/>
						<polygon fill="#F68721" points="201.4,256.2 202.4,256.2 202.4,267.8 201.4,267.8 201.4,256.2 						"/>
						<polygon fill="#F58220" points="202.4,256.2 203.3,256.2 203.3,267.8 202.4,267.8 202.4,256.2 						"/>
					</g>
				</g>
			</g>
		</g>
	</g>
	<g>
		<g>
			<defs>
				<path id="SVGID_13_" d="M229.5,266.7l-9.9-6.6c4.5-1.7,9.1-3.4,13.9-5.1C232.1,259,230.7,262.9,229.5,266.7z"/>
			</defs>
			<clipPath id="SVGID_14_">
				<use xlink:href="#SVGID_13_"  overflow="visible"/>
			</clipPath>
			<g clip-path="url(#SVGID_14_)">
				<g>
					<defs>
						<polygon id="SVGID_15_" points="233.2,254.8 233.7,254.8 233.7,266.9 233.2,266.9 233.2,254.8 						"/>
					</defs>
					<clipPath id="SVGID_16_">
						<use xlink:href="#SVGID_15_"  overflow="visible"/>
					</clipPath>
					<g clip-path="url(#SVGID_16_)">
						<polygon fill="#F58220" points="233.2,254.8 233.5,254.8 233.5,266.9 233.2,266.9 233.2,254.8 						"/>
						<polygon fill="#F58220" points="233.5,254.8 233.7,254.8 233.7,266.9 233.5,266.9 233.5,254.8 						"/>
					</g>
				</g>
				<g>
					<defs>
						<polygon id="SVGID_17_" points="219.3,254.8 233.7,254.8 233.7,266.9 219.3,266.9 219.3,254.8 						"/>
					</defs>
					<clipPath id="SVGID_18_">
						<use xlink:href="#SVGID_17_"  overflow="visible"/>
					</clipPath>
					<g clip-path="url(#SVGID_18_)">
						<polygon fill="#FFCC4E" points="219.3,254.8 220.3,254.8 220.3,266.9 219.3,266.9 219.3,254.8 						"/>
						<polygon fill="#FFC74A" points="220.3,254.8 221.2,254.8 221.2,266.9 220.3,266.9 220.3,254.8 						"/>
						<polygon fill="#FEC146" points="221.2,254.8 222.2,254.8 222.2,266.9 221.2,266.9 221.2,254.8 						"/>
						<polygon fill="#FDBC42" points="222.2,254.8 223.2,254.8 223.2,266.9 222.2,266.9 222.2,254.8 						"/>
						<polygon fill="#FDB73E" points="223.2,254.8 224.1,254.8 224.1,266.9 223.2,266.9 223.2,254.8 						"/>
						<polygon fill="#FCB13B" points="224.1,254.8 225.1,254.8 225.1,266.9 224.1,266.9 224.1,254.8 						"/>
						<polygon fill="#FBAC37" points="225.1,254.8 226,254.8 226,266.9 225.1,266.9 225.1,254.8 						"/>
						<polygon fill="#FAA634" points="226,254.8 227,254.8 227,266.9 226,266.9 226,254.8 						"/>
						<polygon fill="#F9A130" points="227,254.8 228,254.8 228,266.9 227,266.9 227,254.8 						"/>
						<polygon fill="#F99C2D" points="228,254.8 228.9,254.8 228.9,266.9 228,266.9 228,254.8 						"/>
						<polygon fill="#F8962A" points="228.9,254.8 229.9,254.8 229.9,266.9 228.9,266.9 228.9,254.8 						"/>
						<polygon fill="#F79126" points="229.9,254.8 230.8,254.8 230.8,266.9 229.9,266.9 229.9,254.8 						"/>
						<polygon fill="#F78C24" points="230.8,254.8 231.8,254.8 231.8,266.9 230.8,266.9 230.8,254.8 						"/>
						<polygon fill="#F68721" points="231.8,254.8 232.8,254.8 232.8,266.9 231.8,266.9 231.8,254.8 						"/>
						<polygon fill="#F58220" points="232.8,254.8 233.7,254.8 233.7,266.9 232.8,266.9 232.8,254.8 						"/>
					</g>
				</g>
			</g>
		</g>
	</g>
	<g>
		<g>
			<defs>
				<path id="SVGID_19_" d="M248.1,244.7l-13,2.2c2.1-4.8,4.3-9.6,6.6-14.5C243.8,236.6,245.9,240.7,248.1,244.7z"/>
			</defs>
			<clipPath id="SVGID_20_">
				<use xlink:href="#SVGID_19_"  overflow="visible"/>
			</clipPath>
			<g clip-path="url(#SVGID_20_)">
				<g>
					<defs>
						<polygon id="SVGID_21_" points="234.8,232.2 248.3,232.2 248.3,247.2 234.8,247.2 234.8,232.2 						"/>
					</defs>
					<clipPath id="SVGID_22_">
						<use xlink:href="#SVGID_21_"  overflow="visible"/>
					</clipPath>
					<g clip-path="url(#SVGID_22_)">
						<polygon fill="#FFCC4E" points="234.8,232.2 235.7,232.2 235.7,247.2 234.8,247.2 234.8,232.2 						"/>
						<polygon fill="#FFC74A" points="235.7,232.2 236.6,232.2 236.6,247.2 235.7,247.2 235.7,232.2 						"/>
						<polygon fill="#FEC146" points="236.6,232.2 237.5,232.2 237.5,247.2 236.6,247.2 236.6,232.2 						"/>
						<polygon fill="#FDBC42" points="237.5,232.2 238.4,232.2 238.4,247.2 237.5,247.2 237.5,232.2 						"/>
						<polygon fill="#FDB73E" points="238.4,232.2 239.3,232.2 239.3,247.2 238.4,247.2 238.4,232.2 						"/>
						<polygon fill="#FCB13B" points="239.3,232.2 240.2,232.2 240.2,247.2 239.3,247.2 239.3,232.2 						"/>
						<polygon fill="#FBAC37" points="240.2,232.2 241.1,232.2 241.1,247.2 240.2,247.2 240.2,232.2 						"/>
						<polygon fill="#FAA634" points="241.1,232.2 242,232.2 242,247.2 241.1,247.2 241.1,232.2 						"/>
						<polygon fill="#F9A130" points="242,232.2 242.9,232.2 242.9,247.2 242,247.2 242,232.2 						"/>
						<polygon fill="#F99C2D" points="242.9,232.2 243.8,232.2 243.8,247.2 242.9,247.2 242.9,232.2 						"/>
						<polygon fill="#F8962A" points="243.8,232.2 244.7,232.2 244.7,247.2 243.8,247.2 243.8,232.2 						"/>
						<polygon fill="#F79126" points="244.7,232.2 245.6,232.2 245.6,247.2 244.7,247.2 244.7,232.2 						"/>
						<polygon fill="#F78C24" points="245.6,232.2 246.5,232.2 246.5,247.2 245.6,247.2 245.6,232.2 						"/>
						<polygon fill="#F68721" points="246.5,232.2 247.4,232.2 247.4,247.2 246.5,247.2 246.5,232.2 						"/>
						<polygon fill="#F58220" points="247.4,232.2 248.3,232.2 248.3,247.2 247.4,247.2 247.4,232.2 						"/>
					</g>
				</g>
			</g>
		</g>
	</g>
</g>
<g>
	<g>
		<g>
			<g>
				<defs>
					<path id="SVGID_23_" d="M92.4,348.7c-19.1-7.1-39.6-16.6-60.3-28.6l-10.3-53.2c4.3-13,9.5-25.3,14.7-36.5
						c13.8,22.8,28,41.9,41.2,56.6C92.4,348.6,77.7,287.1,92.4,348.7z M442.8,164.3l-16.1,80.3c-7.5,5.5-15.7,10.6-24.7,15
						c-5.7,2.8-11.5,5.2-17.3,7c-25.4,9.8-67.2,7.4-85.9,0.4c-13.5-3.5-26.8-8.3-39.6-13.9c7.7-16.2,17.5-33.3,29.5-50.7
						c18.5-26.6,33.2-47.6,70.5-70.3c15.9-7.9,32.6-12.1,49.1-13L442.8,164.3z"/>
				</defs>
				<clipPath id="SVGID_24_">
					<use xlink:href="#SVGID_23_"  overflow="visible"/>
				</clipPath>
				<g clip-path="url(#SVGID_24_)">
					<g>
						<defs>
							<polygon id="SVGID_25_" points="328.5,78 474.2,152.2 314.8,465.1 169.1,390.8 328.5,78 							"/>
						</defs>
						<clipPath id="SVGID_26_">
							<use xlink:href="#SVGID_25_"  overflow="visible"/>
						</clipPath>
						<g clip-path="url(#SVGID_26_)">
							<polygon fill="#F6E20F" points="328.5,78 333.5,80.5 174.1,393.4 169.1,390.8 328.5,78 							"/>
							<polygon fill="#F5DD1B" points="333.5,80.5 338.5,83.1 179.1,396 174.1,393.4 333.5,80.5 							"/>
							<polygon fill="#F4D825" points="338.5,83.1 343.6,85.7 184.2,398.5 179.1,396 338.5,83.1 							"/>
							<polygon fill="#F4D32C" points="343.6,85.7 348.6,88.2 189.2,401.1 184.2,398.5 343.6,85.7 							"/>
							<polygon fill="#F3CE33" points="348.6,88.2 353.6,90.8 194.2,403.6 189.2,401.1 348.6,88.2 							"/>
							<polygon fill="#F2C938" points="353.6,90.8 358.6,93.3 199.2,406.2 194.2,403.6 353.6,90.8 							"/>
							<polygon fill="#F2C43D" points="358.6,93.3 363.7,95.9 204.3,408.8 199.2,406.2 358.6,93.3 							"/>
							<polygon fill="#F1BF41" points="363.7,95.9 368.7,98.5 209.3,411.3 204.3,408.8 363.7,95.9 							"/>
							<polygon fill="#F0BA45" points="368.7,98.5 373.7,101 214.3,413.9 209.3,411.3 368.7,98.5 							"/>
							<polygon fill="#F0B548" points="373.7,101 378.7,103.6 219.3,416.4 214.3,413.9 373.7,101 							"/>
							<polygon fill="#EFAF4C" points="378.7,103.6 383.8,106.1 224.3,419 219.3,416.4 378.7,103.6 							"/>
							<polygon fill="#EEAA4F" points="383.8,106.1 388.8,108.7 229.4,421.6 224.3,419 383.8,106.1 							"/>
							<polygon fill="#EEA552" points="388.8,108.7 393.8,111.3 234.4,424.1 229.4,421.6 388.8,108.7 							"/>
							<polygon fill="#EDA054" points="393.8,111.3 398.8,113.8 239.4,426.7 234.4,424.1 393.8,111.3 							"/>
							<polygon fill="#ED9B56" points="398.8,113.8 403.8,116.4 244.4,429.2 239.4,426.7 398.8,113.8 							"/>
							<polygon fill="#EC9658" points="403.8,116.4 408.9,118.9 249.5,431.8 244.4,429.2 403.8,116.4 							"/>
							<polygon fill="#EB915A" points="408.9,118.9 413.9,121.5 254.5,434.4 249.5,431.8 408.9,118.9 							"/>
							<polygon fill="#EB8C5C" points="413.9,121.5 418.9,124.1 259.5,436.9 254.5,434.4 413.9,121.5 							"/>
							<polygon fill="#EB875D" points="418.9,124.1 423.9,126.6 264.5,439.5 259.5,436.9 418.9,124.1 							"/>
							<polygon fill="#EA825E" points="423.9,126.6 429,129.2 269.6,442 264.5,439.5 423.9,126.6 							"/>
							<polygon fill="#EA7C5F" points="429,129.2 434,131.7 274.6,444.6 269.6,442 429,129.2 							"/>
							<polygon fill="#E97760" points="434,131.7 439,134.3 279.6,447.1 274.6,444.6 434,131.7 							"/>
							<polygon fill="#E97261" points="439,134.3 444,136.9 284.6,449.7 279.6,447.1 439,134.3 							"/>
							<polygon fill="#E96C62" points="444,136.9 449.1,139.4 289.6,452.3 284.6,449.7 444,136.9 							"/>
							<polygon fill="#E86662" points="449.1,139.4 454.1,142 294.7,454.8 289.6,452.3 449.1,139.4 							"/>
							<polygon fill="#E85F62" points="454.1,142 459.1,144.5 299.7,457.4 294.7,454.8 454.1,142 							"/>
							<polygon fill="#E75962" points="459.1,144.5 464.1,147.1 304.7,459.9 299.7,457.4 459.1,144.5 							"/>
							<polygon fill="#E75263" points="464.1,147.1 469.1,149.6 309.7,462.5 304.7,459.9 464.1,147.1 							"/>
							<polygon fill="#E74A63" points="469.1,149.6 474.2,152.2 314.8,465.1 309.7,462.5 469.1,149.6 							"/>
						</g>
					</g>
					<g>
						<defs>
							<polygon id="SVGID_27_" points="236.7,31.2 328.9,78.2 169.5,391.1 77.3,344.1 236.7,31.2 							"/>
						</defs>
						<clipPath id="SVGID_28_">
							<use xlink:href="#SVGID_27_"  overflow="visible"/>
						</clipPath>
						<g clip-path="url(#SVGID_28_)">
							<polygon fill="#FFCB05" points="236.7,31.2 249.9,37.9 90.5,350.8 77.3,344.1 236.7,31.2 							"/>
							<polygon fill="#FECF08" points="249.9,37.9 263.1,44.6 103.7,357.5 90.5,350.8 249.9,37.9 							"/>
							<polygon fill="#FCD309" points="263.1,44.6 276.2,51.4 116.8,364.2 103.7,357.5 263.1,44.6 							"/>
							<polygon fill="#FAD70B" points="276.2,51.4 289.4,58.1 130,370.9 116.8,364.2 276.2,51.4 							"/>
							<polygon fill="#F9DB0C" points="289.4,58.1 302.6,64.8 143.2,377.6 130,370.9 289.4,58.1 							"/>
							<polygon fill="#F7DF0D" points="302.6,64.8 315.8,71.5 156.4,384.4 143.2,377.6 302.6,64.8 							"/>
							<polygon fill="#F6E20F" points="315.8,71.5 328.9,78.2 169.5,391.1 156.4,384.4 315.8,71.5 							"/>
						</g>
					</g>
					<g>
						<defs>
							<polygon id="SVGID_29_" points="158.1,-8.8 237.2,31.4 77.7,344.3 -1.3,304 158.1,-8.8 							"/>
						</defs>
						<clipPath id="SVGID_30_">
							<use xlink:href="#SVGID_29_"  overflow="visible"/>
						</clipPath>
						<g clip-path="url(#SVGID_30_)">
							<polygon fill="#F68A1F" points="158.1,-8.8 163.8,-6 4.3,306.9 -1.3,304 158.1,-8.8 							"/>
							<polygon fill="#F78F1E" points="163.8,-6 169.4,-3.1 10,309.8 4.3,306.9 163.8,-6 							"/>
							<polygon fill="#F7931E" points="169.4,-3.1 175,-0.2 15.6,312.6 10,309.8 169.4,-3.1 							"/>
							<polygon fill="#F8981D" points="175,-0.2 180.7,2.7 21.3,315.5 15.6,312.6 175,-0.2 							"/>
							<polygon fill="#F99D1C" points="180.7,2.7 186.3,5.5 26.9,318.4 21.3,315.5 180.7,2.7 							"/>
							<polygon fill="#FAA21B" points="186.3,5.5 192,8.4 32.6,321.3 26.9,318.4 186.3,5.5 							"/>
							<polygon fill="#FAA719" points="192,8.4 197.6,11.3 38.2,324.2 32.6,321.3 192,8.4 							"/>
							<polygon fill="#FBAC18" points="197.6,11.3 203.3,14.2 43.9,327 38.2,324.2 197.6,11.3 							"/>
							<polygon fill="#FCB216" points="203.3,14.2 208.9,17.1 49.5,329.9 43.9,327 203.3,14.2 							"/>
							<polygon fill="#FDB714" points="208.9,17.1 214.6,19.9 55.2,332.8 49.5,329.9 208.9,17.1 							"/>
							<polygon fill="#FEBC11" points="214.6,19.9 220.2,22.8 60.8,335.7 55.2,332.8 214.6,19.9 							"/>
							<polygon fill="#FFC10E" points="220.2,22.8 225.9,25.7 66.5,338.5 60.8,335.7 220.2,22.8 							"/>
							<polygon fill="#FFC60A" points="225.9,25.7 231.5,28.6 72.1,341.4 66.5,338.5 225.9,25.7 							"/>
							<polygon fill="#FFCB05" points="231.5,28.6 237.2,31.4 77.7,344.3 72.1,341.4 231.5,28.6 							"/>
						</g>
					</g>
				</g>
			</g>
			<path fill="none" d="M92.4,348.7c-19.1-7.1-39.6-16.6-60.3-28.6l-10.3-53.2c4.3-13,9.5-25.3,14.7-36.5
				c13.8,22.8,28,41.9,41.2,56.6C92.4,348.6,77.7,287.1,92.4,348.7z"/>
			<path fill="none" d="M442.8,164.3l-16.1,80.3c-7.5,5.5-15.7,10.6-24.7,15c-5.7,2.8-11.5,5.2-17.3,7c-25.4,9.8-67.2,7.4-85.9,0.4
				c-13.5-3.5-26.8-8.3-39.6-13.9c7.7-16.2,17.5-33.3,29.5-50.7c18.5-26.6,33.2-47.6,70.5-70.3c15.9-7.9,32.6-12.1,49.1-13
				L442.8,164.3z"/>
		</g>
	</g>
	<g>
		<g>
			<g>
				<defs>
					<path id="SVGID_31_" d="M202.8,400.7c-17.2,5.6-36.2,10.1-56.5,12.7l-39.1-32.1c-5.5-11.4-10.1-22.7-14-33.3
						c21.6,7.9,41.8,13.1,59.1,15.9C202.8,400.6,152.4,364,202.8,400.7z M322.5,1.7l56.3,74.5c-1.8,11.1-4.8,22.4-8.9,33.8
						c-2.6,7.3-5.7,14.1-9.1,20.6c-13.6,29.2-50.4,61.2-70.7,70.5c-13.1,7.7-26.9,14.1-40.7,19.4c-6.6-17.6-12.3-37.3-16.7-59
						c-6.6-33.4-11.8-59.9-1.9-106.8c5.6-19.2,14.9-36.9,26.8-52.5L322.5,1.7z"/>
				</defs>
				<clipPath id="SVGID_32_">
					<use xlink:href="#SVGID_31_"  overflow="visible"/>
				</clipPath>
				<g clip-path="url(#SVGID_32_)">
					<g>
						<defs>
							<polygon id="SVGID_33_" points="285.3,-12.3 323.9,-32 474.1,262.8 435.5,282.4 285.3,-12.3 							"/>
						</defs>
						<clipPath id="SVGID_34_">
							<use xlink:href="#SVGID_33_"  overflow="visible"/>
						</clipPath>
						<g clip-path="url(#SVGID_34_)">
							<polygon fill="#E74463" points="285.3,-12.3 290.8,-15.1 441,279.6 435.5,282.4 285.3,-12.3 							"/>
							<polygon fill="#E24262" points="290.8,-15.1 296.3,-17.9 446.5,276.8 441,279.6 290.8,-15.1 							"/>
							<polygon fill="#DD3F62" points="296.3,-17.9 301.9,-20.8 452.1,274 446.5,276.8 296.3,-17.9 							"/>
							<polygon fill="#D93D62" points="301.9,-20.8 307.4,-23.6 457.6,271.2 452.1,274 301.9,-20.8 							"/>
							<polygon fill="#D43B61" points="307.4,-23.6 312.9,-26.4 463.1,268.4 457.6,271.2 307.4,-23.6 							"/>
							<polygon fill="#D03861" points="312.9,-26.4 318.4,-29.2 468.6,265.6 463.1,268.4 312.9,-26.4 							"/>
							<polygon fill="#CB3661" points="318.4,-29.2 323.9,-32 474.1,262.8 468.6,265.6 318.4,-29.2 							"/>
						</g>
					</g>
					<g>
						<defs>
							<polygon id="SVGID_35_" points="127.5,68.1 285.8,-12.5 435.9,282.2 277.7,362.8 127.5,68.1 							"/>
						</defs>
						<clipPath id="SVGID_36_">
							<use xlink:href="#SVGID_35_"  overflow="visible"/>
						</clipPath>
						<g clip-path="url(#SVGID_36_)">
							<polygon fill="#F6E20F" points="127.5,68.1 132.8,65.4 283,360.2 277.7,362.8 127.5,68.1 							"/>
							<polygon fill="#F5DD1B" points="132.8,65.4 138.1,62.7 288.2,357.5 283,360.2 132.8,65.4 							"/>
							<polygon fill="#F4D824" points="138.1,62.7 143.3,60 293.5,354.8 288.2,357.5 138.1,62.7 							"/>
							<polygon fill="#F4D32C" points="143.3,60 148.6,57.3 298.8,352.1 293.5,354.8 143.3,60 							"/>
							<polygon fill="#F3CF32" points="148.6,57.3 153.9,54.6 304.1,349.4 298.8,352.1 148.6,57.3 							"/>
							<polygon fill="#F2CA38" points="153.9,54.6 159.2,52 309.3,346.7 304.1,349.4 153.9,54.6 							"/>
							<polygon fill="#F2C43C" points="159.2,52 164.4,49.3 314.6,344 309.3,346.7 159.2,52 							"/>
							<polygon fill="#F1BF41" points="164.4,49.3 169.7,46.6 319.9,341.3 314.6,344 164.4,49.3 							"/>
							<polygon fill="#F0BA45" points="169.7,46.6 175,43.9 325.2,338.7 319.9,341.3 169.7,46.6 							"/>
							<polygon fill="#F0B548" points="175,43.9 180.3,41.2 330.4,336 325.2,338.7 175,43.9 							"/>
							<polygon fill="#EFB04B" points="180.3,41.2 185.5,38.5 335.7,333.3 330.4,336 180.3,41.2 							"/>
							<polygon fill="#EEAB4E" points="185.5,38.5 190.8,35.8 341,330.6 335.7,333.3 185.5,38.5 							"/>
							<polygon fill="#EEA651" points="190.8,35.8 196.1,33.1 346.3,327.9 341,330.6 190.8,35.8 							"/>
							<polygon fill="#EDA154" points="196.1,33.1 201.4,30.5 351.5,325.2 346.3,327.9 196.1,33.1 							"/>
							<polygon fill="#ED9B56" points="201.4,30.5 206.6,27.8 356.8,322.5 351.5,325.2 201.4,30.5 							"/>
							<polygon fill="#EC9658" points="206.6,27.8 211.9,25.1 362.1,319.8 356.8,322.5 206.6,27.8 							"/>
							<polygon fill="#EC915A" points="211.9,25.1 217.2,22.4 367.4,317.1 362.1,319.8 211.9,25.1 							"/>
							<polygon fill="#EB8D5B" points="217.2,22.4 222.5,19.7 372.6,314.5 367.4,317.1 217.2,22.4 							"/>
							<polygon fill="#EB885D" points="222.5,19.7 227.7,17 377.9,311.8 372.6,314.5 222.5,19.7 							"/>
							<polygon fill="#EA835E" points="227.7,17 233,14.3 383.2,309.1 377.9,311.8 227.7,17 							"/>
							<polygon fill="#EA7D5F" points="233,14.3 238.3,11.6 388.5,306.4 383.2,309.1 233,14.3 							"/>
							<polygon fill="#E97860" points="238.3,11.6 243.6,9 393.7,303.7 388.5,306.4 238.3,11.6 							"/>
							<polygon fill="#E97361" points="243.6,9 248.8,6.3 399,301 393.7,303.7 243.6,9 							"/>
							<polygon fill="#E96D61" points="248.8,6.3 254.1,3.6 404.3,298.3 399,301 248.8,6.3 							"/>
							<polygon fill="#E86762" points="254.1,3.6 259.4,0.9 409.6,295.6 404.3,298.3 254.1,3.6 							"/>
							<polygon fill="#E86162" points="259.4,0.9 264.7,-1.8 414.8,293 409.6,295.6 259.4,0.9 							"/>
							<polygon fill="#E85A62" points="264.7,-1.8 269.9,-4.5 420.1,290.3 414.8,293 264.7,-1.8 							"/>
							<polygon fill="#E75363" points="269.9,-4.5 275.2,-7.2 425.4,287.6 420.1,290.3 269.9,-4.5 							"/>
							<polygon fill="#E74C63" points="275.2,-7.2 280.5,-9.9 430.7,284.9 425.4,287.6 275.2,-7.2 							"/>
							<polygon fill="#E74463" points="280.5,-9.9 285.8,-12.6 435.9,282.2 430.7,284.9 280.5,-9.9 							"/>
						</g>
					</g>
					<g>
						<defs>
							<polygon id="SVGID_37_" points="30.2,117.6 127.9,67.9 278.1,362.6 180.4,412.4 30.2,117.6 							"/>
						</defs>
						<clipPath id="SVGID_38_">
							<use xlink:href="#SVGID_37_"  overflow="visible"/>
						</clipPath>
						<g clip-path="url(#SVGID_38_)">
							<polygon fill="#00725C" points="30.2,117.6 33.2,116.1 183.4,410.9 180.4,412.4 30.2,117.6 							"/>
							<polygon fill="#00745C" points="33.2,116.1 36.2,114.6 186.4,409.4 183.4,410.9 33.2,116.1 							"/>
							<polygon fill="#00775B" points="36.2,114.6 39.1,113.1 189.3,407.9 186.4,409.4 36.2,114.6 							"/>
							<polygon fill="#19795B" points="39.1,113.1 42.1,111.6 192.3,406.4 189.3,407.9 39.1,113.1 							"/>
							<polygon fill="#297C5A" points="42.1,111.6 45.1,110.1 195.2,404.9 192.3,406.4 42.1,111.6 							"/>
							<polygon fill="#367E5A" points="45.1,110.1 48,108.6 198.2,403.3 195.2,404.9 45.1,110.1 							"/>
							<polygon fill="#408159" points="48,108.6 51,107.1 201.2,401.8 198.2,403.3 48,108.6 							"/>
							<polygon fill="#498358" points="51,107.1 53.9,105.6 204.1,400.3 201.2,401.8 51,107.1 							"/>
							<polygon fill="#518657" points="53.9,105.6 56.9,104.1 207.1,398.8 204.1,400.3 53.9,105.6 							"/>
							<polygon fill="#598956" points="56.9,104.1 59.9,102.6 210,397.3 207.1,398.8 56.9,104.1 							"/>
							<polygon fill="#618C55" points="59.9,102.6 62.8,101 213,395.8 210,397.3 59.9,102.6 							"/>
							<polygon fill="#688F54" points="62.8,101 65.8,99.5 216,394.3 213,395.8 62.8,101 							"/>
							<polygon fill="#6F9253" points="65.8,99.5 68.7,98 218.9,392.8 216,394.3 65.8,99.5 							"/>
							<polygon fill="#769652" points="68.7,98 71.7,96.5 221.9,391.3 218.9,392.8 68.7,98 							"/>
							<polygon fill="#7D9951" points="71.7,96.5 74.7,95 224.9,389.8 221.9,391.3 71.7,96.5 							"/>
							<polygon fill="#839C50" points="74.7,95 77.6,93.5 227.8,388.3 224.9,389.8 74.7,95 							"/>
							<polygon fill="#8AA04F" points="77.6,93.5 80.6,92 230.8,386.8 227.8,388.3 77.6,93.5 							"/>
							<polygon fill="#90A34D" points="80.6,92 83.5,90.5 233.7,385.2 230.8,386.8 80.6,92 							"/>
							<polygon fill="#97A74C" points="83.5,90.5 86.5,89 236.7,383.7 233.7,385.2 83.5,90.5 							"/>
							<polygon fill="#9DAB4A" points="86.5,89 89.5,87.5 239.7,382.2 236.7,383.7 86.5,89 							"/>
							<polygon fill="#A4AE48" points="89.5,87.5 92.4,86 242.6,380.7 239.7,382.2 89.5,87.5 							"/>
							<polygon fill="#ABB246" points="92.4,86 95.4,84.4 245.6,379.2 242.6,380.7 92.4,86 							"/>
							<polygon fill="#B1B643" points="95.4,84.4 98.3,82.9 248.5,377.7 245.6,379.2 95.4,84.4 							"/>
							<polygon fill="#B8BA41" points="98.3,82.9 101.3,81.4 251.5,376.2 248.5,377.7 98.3,82.9 							"/>
							<polygon fill="#BFBE3E" points="101.3,81.4 104.3,79.9 254.5,374.7 251.5,376.2 101.3,81.4 							"/>
							<polygon fill="#C6C33B" points="104.3,79.9 107.2,78.4 257.4,373.2 254.5,374.7 104.3,79.9 							"/>
							<polygon fill="#CCC737" points="107.2,78.4 110.2,76.9 260.4,371.7 257.4,373.2 107.2,78.4 							"/>
							<polygon fill="#D3CB33" points="110.2,76.9 113.2,75.4 263.3,370.2 260.4,371.7 110.2,76.9 							"/>
							<polygon fill="#DAD02F" points="113.2,75.4 116.1,73.9 266.3,368.6 263.3,370.2 113.2,75.4 							"/>
							<polygon fill="#E1D42A" points="116.1,73.9 119.1,72.4 269.3,367.1 266.3,368.6 116.1,73.9 							"/>
							<polygon fill="#E8D923" points="119.1,72.4 122,70.9 272.2,365.6 269.3,367.1 119.1,72.4 							"/>
							<polygon fill="#EFDE1B" points="122,70.9 125,69.4 275.2,364.1 272.2,365.6 122,70.9 							"/>
							<polygon fill="#F6E20F" points="125,69.4 128,67.9 278.1,362.6 275.2,364.1 125,69.4 							"/>
						</g>
					</g>
					<g>
						<defs>
							<polygon id="SVGID_39_" points="-15.5,141 30.7,117.4 180.9,412.2 134.7,435.7 -15.5,141 							"/>
						</defs>
						<clipPath id="SVGID_40_">
							<use xlink:href="#SVGID_39_"  overflow="visible"/>
						</clipPath>
						<g clip-path="url(#SVGID_40_)">
							<polygon fill="#275F68" points="-15.5,141 -9.7,138 140.4,432.8 134.7,435.7 -15.5,141 							"/>
							<polygon fill="#1F6267" points="-9.7,138 -4,135.1 146.2,429.8 140.4,432.8 -9.7,138 							"/>
							<polygon fill="#156565" points="-4,135.1 1.8,132.1 152,426.9 146.2,429.8 -4,135.1 							"/>
							<polygon fill="#056864" points="1.8,132.1 7.6,129.2 157.8,423.9 152,426.9 1.8,132.1 							"/>
							<polygon fill="#006A62" points="7.6,129.2 13.4,126.2 163.6,421 157.8,423.9 7.6,129.2 							"/>
							<polygon fill="#006D60" points="13.4,126.2 19.1,123.3 169.3,418.1 163.6,421 13.4,126.2 							"/>
							<polygon fill="#006F5E" points="19.1,123.3 24.9,120.4 175.1,415.1 169.3,418.1 19.1,123.3 							"/>
							<polygon fill="#00725C" points="24.9,120.4 30.7,117.4 180.9,412.2 175.1,415.1 24.9,120.4 							"/>
						</g>
					</g>
				</g>
			</g>
			<path fill="none" d="M202.8,400.7c-17.2,5.6-36.2,10.1-56.5,12.7l-39.1-32.1c-5.5-11.4-10.1-22.7-14-33.3
				c21.6,7.9,41.8,13.1,59.1,15.9C202.8,400.6,152.4,364,202.8,400.7z"/>
			<path fill="none" d="M322.5,1.7l56.3,74.5c-1.8,11.1-4.8,22.4-8.9,33.8c-2.6,7.3-5.7,14.1-9.1,20.6
				c-13.6,29.2-50.4,61.2-70.7,70.5c-13.1,7.7-26.9,14.1-40.7,19.4c-6.6-17.6-12.3-37.3-16.7-59c-6.6-33.4-11.8-59.9-1.9-106.8
				c5.6-19.2,14.9-36.9,26.8-52.5L322.5,1.7z"/>
		</g>
	</g>
	<g>
		<g>
			<g>
				<defs>
					<path id="SVGID_41_" d="M320.8,373.9c-9.1,15.5-20.2,31-33.5,45.4l-51.6-2.3c-11.8-5.6-22.9-11.6-32.7-17.3
						c19.8-6.7,37.5-14.7,51.7-23.1C320.7,373.8,254.7,376.7,320.8,373.9z M113.1,0.7l89.4-0.6c7,9,13.4,19.2,19,30.4
						c3.6,7.2,6.6,14.5,9,21.9c12.3,31.8,9.7,84.6,1.9,107.1c-3.7,15.6-8.7,30.5-14.5,44.5c-17.2-7.7-35-17.4-53-29.2
						c-26.8-17.8-47.3-31.5-71.7-69c-8.9-16.3-14.9-34.3-17.9-53L113.1,0.7z"/>
				</defs>
				<clipPath id="SVGID_42_">
					<use xlink:href="#SVGID_41_"  overflow="visible"/>
				</clipPath>
				<g clip-path="url(#SVGID_42_)">
					<g>
						<defs>
							<polygon id="SVGID_43_" points="90.7,-9.6 95,-26.9 401.9,49.6 397.6,66.9 90.7,-9.6 							"/>
						</defs>
						<clipPath id="SVGID_44_">
							<use xlink:href="#SVGID_43_"  overflow="visible"/>
						</clipPath>
						<g clip-path="url(#SVGID_44_)">
							<polygon fill="#AD2960" points="90.7,-9.6 92.8,-18.3 399.7,58.2 397.6,66.9 90.7,-9.6 							"/>
							<polygon fill="#AD2960" points="92.8,-18.3 95,-26.9 401.9,49.6 399.7,58.2 92.8,-18.3 							"/>
						</g>
					</g>
					<g>
						<defs>
							<polygon id="SVGID_45_" points="73.2,60.4 90.8,-10.1 397.7,66.4 380.1,137 73.2,60.4 							"/>
						</defs>
						<clipPath id="SVGID_46_">
							<use xlink:href="#SVGID_45_"  overflow="visible"/>
						</clipPath>
						<g clip-path="url(#SVGID_46_)">
							<polygon fill="#E74463" points="73.2,60.4 74.6,54.6 381.6,131.1 380.1,137 73.2,60.4 							"/>
							<polygon fill="#E14162" points="74.6,54.6 76.1,48.7 383,125.2 381.6,131.1 74.6,54.6 							"/>
							<polygon fill="#DC3E62" points="76.1,48.7 77.6,42.8 384.5,119.3 383,125.2 76.1,48.7 							"/>
							<polygon fill="#D73C62" points="77.6,42.8 79,36.9 385.9,113.4 384.5,119.3 77.6,42.8 							"/>
							<polygon fill="#D13961" points="79,36.9 80.5,31 387.4,107.6 385.9,113.4 79,36.9 							"/>
							<polygon fill="#CC3761" points="80.5,31 82,25.2 388.9,101.7 387.4,107.6 80.5,31 							"/>
							<polygon fill="#C73461" points="82,25.2 83.4,19.3 390.3,95.8 388.9,101.7 82,25.2 							"/>
							<polygon fill="#C23160" points="83.4,19.3 84.9,13.4 391.8,89.9 390.3,95.8 83.4,19.3 							"/>
							<polygon fill="#BD2F60" points="84.9,13.4 86.4,7.5 393.3,84 391.8,89.9 84.9,13.4 							"/>
							<polygon fill="#B82D60" points="86.4,7.5 87.8,1.6 394.7,78.2 393.3,84 86.4,7.5 							"/>
							<polygon fill="#B32A60" points="87.8,1.6 89.3,-4.2 396.2,72.3 394.7,78.2 87.8,1.6 							"/>
							<polygon fill="#AD2960" points="89.3,-4.2 90.8,-10.1 397.7,66.4 396.2,72.3 89.3,-4.2 							"/>
						</g>
					</g>
					<g>
						<defs>
							<polygon id="SVGID_47_" points="39,197.4 73.3,59.9 380.2,136.5 345.9,273.9 39,197.4 							"/>
						</defs>
						<clipPath id="SVGID_48_">
							<use xlink:href="#SVGID_47_"  overflow="visible"/>
						</clipPath>
						<g clip-path="url(#SVGID_48_)">
							<polygon fill="#F6E20F" points="39,197.4 40.2,192.8 347.1,269.4 345.9,273.9 39,197.4 							"/>
							<polygon fill="#F5DD1B" points="40.2,192.8 41.3,188.2 348.2,264.8 347.1,269.4 40.2,192.8 							"/>
							<polygon fill="#F4D824" points="41.3,188.2 42.5,183.7 349.4,260.2 348.2,264.8 41.3,188.2 							"/>
							<polygon fill="#F4D32C" points="42.5,183.7 43.6,179.1 350.5,255.6 349.4,260.2 42.5,183.7 							"/>
							<polygon fill="#F3CF32" points="43.6,179.1 44.7,174.5 351.6,251 350.5,255.6 43.6,179.1 							"/>
							<polygon fill="#F2CA38" points="44.7,174.5 45.9,169.9 352.8,246.4 351.6,251 44.7,174.5 							"/>
							<polygon fill="#F2C43C" points="45.9,169.9 47,165.3 353.9,241.9 352.8,246.4 45.9,169.9 							"/>
							<polygon fill="#F1BF41" points="47,165.3 48.2,160.8 355.1,237.3 353.9,241.9 47,165.3 							"/>
							<polygon fill="#F0BA45" points="48.2,160.8 49.3,156.2 356.2,232.7 355.1,237.3 48.2,160.8 							"/>
							<polygon fill="#F0B548" points="49.3,156.2 50.5,151.6 357.4,228.1 356.2,232.7 49.3,156.2 							"/>
							<polygon fill="#EFB04B" points="50.5,151.6 51.6,147 358.5,223.5 357.4,228.1 50.5,151.6 							"/>
							<polygon fill="#EEAB4E" points="51.6,147 52.7,142.4 359.6,219 358.5,223.5 51.6,147 							"/>
							<polygon fill="#EEA651" points="52.7,142.4 53.9,137.8 360.8,214.4 359.6,219 52.7,142.4 							"/>
							<polygon fill="#EDA154" points="53.9,137.8 55,133.3 361.9,209.8 360.8,214.4 53.9,137.8 							"/>
							<polygon fill="#ED9B56" points="55,133.3 56.2,128.7 363.1,205.2 361.9,209.8 55,133.3 							"/>
							<polygon fill="#EC9658" points="56.2,128.7 57.3,124.1 364.2,200.6 363.1,205.2 56.2,128.7 							"/>
							<polygon fill="#EC915A" points="57.3,124.1 58.5,119.5 365.4,196 364.2,200.6 57.3,124.1 							"/>
							<polygon fill="#EB8D5B" points="58.5,119.5 59.6,114.9 366.5,191.5 365.4,196 58.5,119.5 							"/>
							<polygon fill="#EB885D" points="59.6,114.9 60.7,110.4 367.6,186.9 366.5,191.5 59.6,114.9 							"/>
							<polygon fill="#EA835E" points="60.7,110.4 61.9,105.8 368.8,182.3 367.6,186.9 60.7,110.4 							"/>
							<polygon fill="#EA7D5F" points="61.9,105.8 63,101.2 369.9,177.7 368.8,182.3 61.9,105.8 							"/>
							<polygon fill="#E97860" points="63,101.2 64.2,96.6 371.1,173.1 369.9,177.7 63,101.2 							"/>
							<polygon fill="#E97361" points="64.2,96.6 65.3,92 372.2,168.6 371.1,173.1 64.2,96.6 							"/>
							<polygon fill="#E96D61" points="65.3,92 66.5,87.4 373.4,164 372.2,168.6 65.3,92 							"/>
							<polygon fill="#E86762" points="66.5,87.4 67.6,82.9 374.5,159.4 373.4,164 66.5,87.4 							"/>
							<polygon fill="#E86162" points="67.6,82.9 68.7,78.3 375.6,154.8 374.5,159.4 67.6,82.9 							"/>
							<polygon fill="#E85A62" points="68.7,78.3 69.9,73.7 376.8,150.2 375.6,154.8 68.7,78.3 							"/>
							<polygon fill="#E75363" points="69.9,73.7 71,69.1 377.9,145.6 376.8,150.2 69.9,73.7 							"/>
							<polygon fill="#E74C63" points="71,69.1 72.2,64.5 379.1,141.1 377.9,145.6 71,69.1 							"/>
							<polygon fill="#E74463" points="72.2,64.5 73.3,60 380.2,136.5 379.1,141.1 72.2,64.5 							"/>
						</g>
					</g>
					<g>
						<defs>
							<polygon id="SVGID_49_" points="18,281.8 39.2,196.9 346.1,273.4 324.9,358.3 18,281.8 							"/>
						</defs>
						<clipPath id="SVGID_50_">
							<use xlink:href="#SVGID_49_"  overflow="visible"/>
						</clipPath>
						<g clip-path="url(#SVGID_50_)">
							<polygon fill="#00725C" points="18,281.8 18.6,279.3 325.5,355.8 324.9,358.4 18,281.8 							"/>
							<polygon fill="#00745C" points="18.6,279.3 19.3,276.7 326.2,353.2 325.5,355.8 18.6,279.3 							"/>
							<polygon fill="#00775B" points="19.3,276.7 19.9,274.1 326.8,350.6 326.2,353.2 19.3,276.7 							"/>
							<polygon fill="#19795B" points="19.9,274.1 20.6,271.5 327.5,348.1 326.8,350.6 19.9,274.1 							"/>
							<polygon fill="#297C5A" points="20.6,271.5 21.2,269 328.1,345.5 327.5,348.1 20.6,271.5 							"/>
							<polygon fill="#367E5A" points="21.2,269 21.8,266.4 328.7,342.9 328.1,345.5 21.2,269 							"/>
							<polygon fill="#408159" points="21.8,266.4 22.5,263.8 329.4,340.3 328.7,342.9 21.8,266.4 							"/>
							<polygon fill="#498358" points="22.5,263.8 23.1,261.2 330,337.8 329.4,340.3 22.5,263.8 							"/>
							<polygon fill="#518657" points="23.1,261.2 23.8,258.7 330.7,335.2 330,337.8 23.1,261.2 							"/>
							<polygon fill="#598956" points="23.8,258.7 24.4,256.1 331.3,332.6 330.7,335.2 23.8,258.7 							"/>
							<polygon fill="#618C55" points="24.4,256.1 25,253.5 331.9,330.1 331.3,332.6 24.4,256.1 							"/>
							<polygon fill="#688F54" points="25,253.5 25.7,251 332.6,327.5 331.9,330.1 25,253.5 							"/>
							<polygon fill="#6F9253" points="25.7,251 26.3,248.4 333.2,324.9 332.6,327.5 25.7,251 							"/>
							<polygon fill="#769652" points="26.3,248.4 27,245.8 333.9,322.3 333.2,324.9 26.3,248.4 							"/>
							<polygon fill="#7D9951" points="27,245.8 27.6,243.2 334.5,319.8 333.9,322.3 27,245.8 							"/>
							<polygon fill="#839C50" points="27.6,243.2 28.2,240.7 335.1,317.2 334.5,319.8 27.6,243.2 							"/>
							<polygon fill="#8AA04F" points="28.2,240.7 28.9,238.1 335.8,314.6 335.1,317.2 28.2,240.7 							"/>
							<polygon fill="#90A34D" points="28.9,238.1 29.5,235.5 336.4,312 335.8,314.6 28.9,238.1 							"/>
							<polygon fill="#97A74C" points="29.5,235.5 30.2,232.9 337.1,309.5 336.4,312 29.5,235.5 							"/>
							<polygon fill="#9DAB4A" points="30.2,232.9 30.8,230.4 337.7,306.9 337.1,309.5 30.2,232.9 							"/>
							<polygon fill="#A4AE48" points="30.8,230.4 31.5,227.8 338.4,304.3 337.7,306.9 30.8,230.4 							"/>
							<polygon fill="#ABB246" points="31.5,227.8 32.1,225.2 339,301.7 338.4,304.3 31.5,227.8 							"/>
							<polygon fill="#B1B643" points="32.1,225.2 32.7,222.7 339.6,299.2 339,301.7 32.1,225.2 							"/>
							<polygon fill="#B8BA41" points="32.7,222.7 33.4,220.1 340.3,296.6 339.6,299.2 32.7,222.7 							"/>
							<polygon fill="#BFBE3E" points="33.4,220.1 34,217.5 340.9,294 340.3,296.6 33.4,220.1 							"/>
							<polygon fill="#C6C33B" points="34,217.5 34.7,214.9 341.6,291.5 340.9,294 34,217.5 							"/>
							<polygon fill="#CCC737" points="34.7,214.9 35.3,212.4 342.2,288.9 341.6,291.5 34.7,214.9 							"/>
							<polygon fill="#D3CB33" points="35.3,212.4 35.9,209.8 342.8,286.3 342.2,288.9 35.3,212.4 							"/>
							<polygon fill="#DAD02F" points="35.9,209.8 36.6,207.2 343.5,283.7 342.8,286.3 35.9,209.8 							"/>
							<polygon fill="#E1D42A" points="36.6,207.2 37.2,204.6 344.1,281.2 343.5,283.7 36.6,207.2 							"/>
							<polygon fill="#E8D923" points="37.2,204.6 37.9,202.1 344.8,278.6 344.1,281.2 37.2,204.6 							"/>
							<polygon fill="#EFDE1B" points="37.9,202.1 38.5,199.5 345.4,276 344.8,278.6 37.9,202.1 							"/>
							<polygon fill="#F6E20F" points="38.5,199.5 39.2,196.9 346.1,273.4 345.4,276 38.5,199.5 							"/>
						</g>
					</g>
					<g>
						<defs>
							<polygon id="SVGID_51_" points="-1.1,358.3 18.1,281.3 325,357.9 305.8,434.8 -1.1,358.3 							"/>
						</defs>
						<clipPath id="SVGID_52_">
							<use xlink:href="#SVGID_51_"  overflow="visible"/>
						</clipPath>
						<g clip-path="url(#SVGID_52_)">
							<polygon fill="#454A6E" points="-1.1,358.3 0.3,352.8 307.2,429.3 305.8,434.8 -1.1,358.3 							"/>
							<polygon fill="#424E6D" points="0.3,352.8 1.7,347.3 308.6,423.8 307.2,429.3 0.3,352.8 							"/>
							<polygon fill="#3E516D" points="1.7,347.3 3,341.8 309.9,418.3 308.6,423.8 1.7,347.3 							"/>
							<polygon fill="#39556C" points="3,341.8 4.4,336.3 311.3,412.8 309.9,418.3 3,341.8 							"/>
							<polygon fill="#34586B" points="4.4,336.3 5.8,330.8 312.7,407.3 311.3,412.8 4.4,336.3 							"/>
							<polygon fill="#2F5B6A" points="5.8,330.8 7.1,325.3 314,401.8 312.7,407.3 5.8,330.8 							"/>
							<polygon fill="#285E68" points="7.1,325.3 8.5,319.8 315.4,396.3 314,401.8 7.1,325.3 							"/>
							<polygon fill="#216167" points="8.5,319.8 9.9,314.3 316.8,390.8 315.4,396.3 8.5,319.8 							"/>
							<polygon fill="#176466" points="9.9,314.3 11.3,308.8 318.2,385.3 316.8,390.8 9.9,314.3 							"/>
							<polygon fill="#086764" points="11.3,308.8 12.6,303.3 319.5,379.9 318.2,385.3 11.3,308.8 							"/>
							<polygon fill="#006A62" points="12.6,303.3 14,297.8 320.9,374.4 319.5,379.9 12.6,303.3 							"/>
							<polygon fill="#006D60" points="14,297.8 15.4,292.3 322.3,368.9 320.9,374.4 14,297.8 							"/>
							<polygon fill="#006F5E" points="15.4,292.3 16.7,286.8 323.6,363.4 322.3,368.9 15.4,292.3 							"/>
							<polygon fill="#00725C" points="16.7,286.8 18.1,281.3 325,357.9 323.6,363.4 16.7,286.8 							"/>
						</g>
					</g>
				</g>
			</g>
			<path fill="none" d="M320.8,373.9c-9.1,15.5-20.2,31-33.5,45.4l-51.6-2.3c-11.8-5.6-22.9-11.6-32.7-17.3
				c19.8-6.7,37.5-14.7,51.7-23.1C320.7,373.8,254.7,376.7,320.8,373.9z"/>
			<path fill="none" d="M113.1,0.7l89.4-0.6c7,9,13.4,19.2,19,30.4c3.6,7.2,6.6,14.5,9,21.9c12.3,31.8,9.7,84.6,1.9,107.1
				c-3.7,15.6-8.7,30.5-14.5,44.5c-17.2-7.7-35-17.4-53-29.2c-26.8-17.8-47.3-31.5-71.7-69c-8.9-16.3-14.9-34.3-17.9-53L113.1,0.7z"
				/>
		</g>
	</g>
	<g>
		<g>
			<g>
				<defs>
					<path id="SVGID_53_" d="M398,268.6c5.6,19.8,9.2,41.1,9.9,63l-47,34.1c-14.5,3.3-28.3,5.6-40.8,7.4
						c10.5-18.4,18.3-36.9,23.1-53.6C397.9,268.6,343.2,319.4,398,268.6z M-0.4,154.3l44.6-61.7c9.1,0.4,18.8,2,28.8,4.9
						c6.5,1.9,12.8,4.3,18.8,7.2c27.8,11.2,61.4,48.1,71.9,69.1c8.3,13.4,15.4,27.4,21.4,41.2c-16.5,6.6-34.3,12.2-53,16.2
						c-27,5.7-47.1,9.8-82.5,0.9c-14-4.8-27.2-12.3-39.1-22L-0.4,154.3z"/>
				</defs>
				<clipPath id="SVGID_54_">
					<use xlink:href="#SVGID_53_"  overflow="visible"/>
				</clipPath>
				<g clip-path="url(#SVGID_54_)">
					<g>
						<defs>
							<polygon id="SVGID_55_" points="-0.7,183.2 -26,120.7 287.3,-5.9 312.6,56.6 -0.7,183.2 							"/>
						</defs>
						<clipPath id="SVGID_56_">
							<use xlink:href="#SVGID_55_"  overflow="visible"/>
						</clipPath>
						<g clip-path="url(#SVGID_56_)">
							<polygon fill="#E74463" points="-0.7,183.2 -3.3,176.9 310.1,50.4 312.6,56.6 -0.7,183.2 							"/>
							<polygon fill="#E14162" points="-3.3,176.9 -5.8,170.7 307.5,44.1 310.1,50.4 -3.3,176.9 							"/>
							<polygon fill="#DC3F62" points="-5.8,170.7 -8.3,164.4 305,37.9 307.5,44.1 -5.8,170.7 							"/>
							<polygon fill="#D73C62" points="-8.3,164.4 -10.8,158.2 302.5,31.6 305,37.9 -8.3,164.4 							"/>
							<polygon fill="#D23A61" points="-10.8,158.2 -13.4,151.9 300,25.4 302.5,31.6 -10.8,158.2 							"/>
							<polygon fill="#CD3761" points="-13.4,151.9 -15.9,145.7 297.4,19.1 300,25.4 -13.4,151.9 							"/>
							<polygon fill="#C83461" points="-15.9,145.7 -18.4,139.4 294.9,12.9 297.4,19.1 -15.9,145.7 							"/>
							<polygon fill="#C33261" points="-18.4,139.4 -20.9,133.2 292.4,6.6 294.9,12.9 -18.4,139.4 							"/>
							<polygon fill="#BE3060" points="-20.9,133.2 -23.5,126.9 289.9,0.4 292.4,6.6 -20.9,133.2 							"/>
							<polygon fill="#B92D60" points="-23.5,126.9 -26,120.7 287.3,-5.9 289.9,0.4 -23.5,126.9 							"/>
						</g>
					</g>
					<g>
						<defs>
							<polygon id="SVGID_57_" points="60.7,335.4 -0.9,182.7 312.4,56.1 374.1,208.8 60.7,335.4 							"/>
						</defs>
						<clipPath id="SVGID_58_">
							<use xlink:href="#SVGID_57_"  overflow="visible"/>
						</clipPath>
						<g clip-path="url(#SVGID_58_)">
							<polygon fill="#F6E20F" points="60.7,335.4 58.7,330.3 372,203.7 374.1,208.8 60.7,335.4 							"/>
							<polygon fill="#F5DD1B" points="58.7,330.3 56.6,325.2 370,198.6 372,203.7 58.7,330.3 							"/>
							<polygon fill="#F4D824" points="56.6,325.2 54.6,320.1 367.9,193.5 370,198.6 56.6,325.2 							"/>
							<polygon fill="#F4D32C" points="54.6,320.1 52.5,315 365.9,188.5 367.9,193.5 54.6,320.1 							"/>
							<polygon fill="#F3CF32" points="52.5,315 50.5,310 363.8,183.4 365.9,188.5 52.5,315 							"/>
							<polygon fill="#F2CA38" points="50.5,310 48.4,304.9 361.7,178.3 363.8,183.4 50.5,310 							"/>
							<polygon fill="#F2C43C" points="48.4,304.9 46.4,299.8 359.7,173.2 361.7,178.3 48.4,304.9 							"/>
							<polygon fill="#F1BF41" points="46.4,299.8 44.3,294.7 357.6,168.1 359.7,173.2 46.4,299.8 							"/>
							<polygon fill="#F0BA45" points="44.3,294.7 42.2,289.6 355.6,163 357.6,168.1 44.3,294.7 							"/>
							<polygon fill="#F0B548" points="42.2,289.6 40.2,284.5 353.5,157.9 355.6,163 42.2,289.6 							"/>
							<polygon fill="#EFB04B" points="40.2,284.5 38.1,279.4 351.5,152.8 353.5,157.9 40.2,284.5 							"/>
							<polygon fill="#EEAB4E" points="38.1,279.4 36.1,274.3 349.4,147.7 351.5,152.8 38.1,279.4 							"/>
							<polygon fill="#EEA651" points="36.1,274.3 34,269.2 347.3,142.7 349.4,147.7 36.1,274.3 							"/>
							<polygon fill="#EDA154" points="34,269.2 32,264.2 345.3,137.6 347.3,142.7 34,269.2 							"/>
							<polygon fill="#ED9B56" points="32,264.2 29.9,259.1 343.2,132.5 345.3,137.6 32,264.2 							"/>
							<polygon fill="#EC9658" points="29.9,259.1 27.8,254 341.2,127.4 343.2,132.5 29.9,259.1 							"/>
							<polygon fill="#EC915A" points="27.8,254 25.8,248.9 339.1,122.3 341.2,127.4 27.8,254 							"/>
							<polygon fill="#EB8D5B" points="25.8,248.9 23.7,243.8 337.1,117.2 339.1,122.3 25.8,248.9 							"/>
							<polygon fill="#EB885D" points="23.7,243.8 21.7,238.7 335,112.1 337.1,117.2 23.7,243.8 							"/>
							<polygon fill="#EA835E" points="21.7,238.7 19.6,233.6 333,107 335,112.1 21.7,238.7 							"/>
							<polygon fill="#EA7D5F" points="19.6,233.6 17.6,228.5 330.9,101.9 333,107 19.6,233.6 							"/>
							<polygon fill="#E97860" points="17.6,228.5 15.5,223.4 328.8,96.9 330.9,101.9 17.6,228.5 							"/>
							<polygon fill="#E97361" points="15.5,223.4 13.5,218.4 326.8,91.8 328.8,96.9 15.5,223.4 							"/>
							<polygon fill="#E96D61" points="13.5,218.4 11.4,213.3 324.7,86.7 326.8,91.8 13.5,218.4 							"/>
							<polygon fill="#E86762" points="11.4,213.3 9.3,208.2 322.7,81.6 324.7,86.7 11.4,213.3 							"/>
							<polygon fill="#E86162" points="9.3,208.2 7.3,203.1 320.6,76.5 322.7,81.6 9.3,208.2 							"/>
							<polygon fill="#E85A62" points="7.3,203.1 5.2,198 318.6,71.4 320.6,76.5 7.3,203.1 							"/>
							<polygon fill="#E75363" points="5.2,198 3.2,192.9 316.5,66.3 318.6,71.4 5.2,198 							"/>
							<polygon fill="#E74C63" points="3.2,192.9 1.1,187.8 314.5,61.2 316.5,66.3 3.2,192.9 							"/>
							<polygon fill="#E74463" points="1.1,187.8 -0.9,182.7 312.4,56.1 314.5,61.2 1.1,187.8 							"/>
						</g>
					</g>
					<g>
						<defs>
							<polygon id="SVGID_59_" points="98.6,429.2 60.6,334.9 373.9,208.3 412,302.6 98.6,429.2 							"/>
						</defs>
						<clipPath id="SVGID_60_">
							<use xlink:href="#SVGID_59_"  overflow="visible"/>
						</clipPath>
						<g clip-path="url(#SVGID_60_)">
							<polygon fill="#00725C" points="98.6,429.2 97.5,426.3 410.8,299.8 412,302.6 98.6,429.2 							"/>
							<polygon fill="#00745C" points="97.5,426.3 96.3,423.5 409.7,296.9 410.8,299.8 97.5,426.3 							"/>
							<polygon fill="#00775B" points="96.3,423.5 95.2,420.6 408.5,294 409.7,296.9 96.3,423.5 							"/>
							<polygon fill="#19795B" points="95.2,420.6 94,417.8 407.4,291.2 408.5,294 95.2,420.6 							"/>
							<polygon fill="#297C5A" points="94,417.8 92.9,414.9 406.2,288.3 407.4,291.2 94,417.8 							"/>
							<polygon fill="#367E5A" points="92.9,414.9 91.7,412.1 405.1,285.5 406.2,288.3 92.9,414.9 							"/>
							<polygon fill="#408159" points="91.7,412.1 90.6,409.2 403.9,282.6 405.1,285.5 91.7,412.1 							"/>
							<polygon fill="#498358" points="90.6,409.2 89.4,406.4 402.7,279.8 403.9,282.6 90.6,409.2 							"/>
							<polygon fill="#518657" points="89.4,406.4 88.3,403.5 401.6,276.9 402.7,279.8 89.4,406.4 							"/>
							<polygon fill="#598956" points="88.3,403.5 87.1,400.6 400.4,274 401.6,276.9 88.3,403.5 							"/>
							<polygon fill="#618C55" points="87.1,400.6 85.9,397.8 399.3,271.2 400.4,274 87.1,400.6 							"/>
							<polygon fill="#688F54" points="85.9,397.8 84.8,394.9 398.1,268.3 399.3,271.2 85.9,397.8 							"/>
							<polygon fill="#6F9253" points="84.8,394.9 83.6,392.1 397,265.5 398.1,268.3 84.8,394.9 							"/>
							<polygon fill="#769652" points="83.6,392.1 82.5,389.2 395.8,262.6 397,265.5 83.6,392.1 							"/>
							<polygon fill="#7D9951" points="82.5,389.2 81.3,386.4 394.7,259.8 395.8,262.6 82.5,389.2 							"/>
							<polygon fill="#839C50" points="81.3,386.4 80.2,383.5 393.5,256.9 394.7,259.8 81.3,386.4 							"/>
							<polygon fill="#8AA04F" points="80.2,383.5 79,380.6 392.4,254 393.5,256.9 80.2,383.5 							"/>
							<polygon fill="#90A34D" points="79,380.6 77.9,377.8 391.2,251.2 392.4,254 79,380.6 							"/>
							<polygon fill="#97A74C" points="77.9,377.8 76.7,374.9 390,248.3 391.2,251.2 77.9,377.8 							"/>
							<polygon fill="#9DAB4A" points="76.7,374.9 75.6,372.1 388.9,245.5 390,248.3 76.7,374.9 							"/>
							<polygon fill="#A4AE48" points="75.6,372.1 74.4,369.2 387.7,242.6 388.9,245.5 75.6,372.1 							"/>
							<polygon fill="#ABB246" points="74.4,369.2 73.3,366.4 386.6,239.8 387.7,242.6 74.4,369.2 							"/>
							<polygon fill="#B1B643" points="73.3,366.4 72.1,363.5 385.4,236.9 386.6,239.8 73.3,366.4 							"/>
							<polygon fill="#B8BA41" points="72.1,363.5 70.9,360.6 384.3,234.1 385.4,236.9 72.1,363.5 							"/>
							<polygon fill="#BFBE3E" points="70.9,360.6 69.8,357.8 383.1,231.2 384.3,234.1 70.9,360.6 							"/>
							<polygon fill="#C6C33B" points="69.8,357.8 68.6,354.9 382,228.3 383.1,231.2 69.8,357.8 							"/>
							<polygon fill="#CCC737" points="68.6,354.9 67.5,352.1 380.8,225.5 382,228.3 68.6,354.9 							"/>
							<polygon fill="#D3CB33" points="67.5,352.1 66.3,349.2 379.7,222.6 380.8,225.5 67.5,352.1 							"/>
							<polygon fill="#DAD02F" points="66.3,349.2 65.2,346.4 378.5,219.8 379.7,222.6 66.3,349.2 							"/>
							<polygon fill="#E1D42A" points="65.2,346.4 64,343.5 377.4,216.9 378.5,219.8 65.2,346.4 							"/>
							<polygon fill="#E8D923" points="64,343.5 62.9,340.6 376.2,214.1 377.4,216.9 64,343.5 							"/>
							<polygon fill="#EFDE1B" points="62.9,340.6 61.7,337.8 375,211.2 376.2,214.1 62.9,340.6 							"/>
							<polygon fill="#F6E20F" points="61.7,337.8 60.6,334.9 373.9,208.3 375,211.2 61.7,337.8 							"/>
						</g>
					</g>
					<g>
						<defs>
							<polygon id="SVGID_61_" points="113.5,465.9 98.5,428.7 411.8,302.1 426.8,339.3 113.5,465.9 							"/>
						</defs>
						<clipPath id="SVGID_62_">
							<use xlink:href="#SVGID_61_"  overflow="visible"/>
						</clipPath>
						<g clip-path="url(#SVGID_62_)">
							<polygon fill="#1D6367" points="113.5,465.9 111.3,460.6 424.6,334 426.8,339.3 113.5,465.9 							"/>
							<polygon fill="#136565" points="111.3,460.6 109.2,455.3 422.5,328.7 424.6,334 111.3,460.6 							"/>
							<polygon fill="#036864" points="109.2,455.3 107,450 420.4,323.4 422.5,328.7 109.2,455.3 							"/>
							<polygon fill="#006A62" points="107,450 104.9,444.7 418.2,318.1 420.4,323.4 107,450 							"/>
							<polygon fill="#006D60" points="104.9,444.7 102.7,439.3 416.1,312.8 418.2,318.1 104.9,444.7 							"/>
							<polygon fill="#00705E" points="102.7,439.3 100.6,434 413.9,307.5 416.1,312.8 102.7,439.3 							"/>
							<polygon fill="#00725C" points="100.6,434 98.5,428.7 411.8,302.1 413.9,307.5 100.6,434 							"/>
						</g>
					</g>
				</g>
			</g>
			<path fill="none" d="M398,268.6c5.6,19.8,9.2,41.1,9.9,63l-47,34.1c-14.5,3.3-28.3,5.6-40.8,7.4c10.5-18.4,18.3-36.9,23.1-53.6
				C397.9,268.6,343.2,319.4,398,268.6z"/>
			<path fill="none" d="M-0.4,154.3l44.6-61.7c9.1,0.4,18.8,2,28.8,4.9c6.5,1.9,12.8,4.3,18.8,7.2c27.8,11.2,61.4,48.1,71.9,69.1
				c8.3,13.4,15.4,27.4,21.4,41.2c-16.5,6.6-34.3,12.2-53,16.2c-27,5.7-47.1,9.8-82.5,0.9c-14-4.8-27.2-12.3-39.1-22L-0.4,154.3z"/>
		</g>
	</g>
</g>
<g>
</g>
<g>
</g>
<g>
</g>
<g>
</g>
<g>
</g>
<g>
</g>
</svg>
